HIERARCHY
ROOT Hips
{
	OFFSET 0.000000 0.000000 0.000000
	CHANNELS 6 Xposition Yposition Zposition Zrotation Yrotation Xrotation 
	JOINT LHipJoint
	{
		OFFSET 0.000000 0.000000 0.000000
		CHANNELS 3 Zrotation Yrotation Xrotation
		JOINT LeftUpLeg
		{
			OFFSET 1.363060 -1.794630 0.839290
			CHANNELS 3 Zrotation Yrotation Xrotation
			JOINT LeftLeg
			{
				OFFSET 2.448110 -6.726130 0.000000
				CHANNELS 3 Zrotation Yrotation Xrotation
				JOINT LeftFoot
				{
					OFFSET 2.562200 -7.039590 0.000000
					CHANNELS 3 Zrotation Yrotation Xrotation
					JOINT LeftToeBase
					{
						OFFSET 0.157640 -0.433110 2.322550
						CHANNELS 3 Zrotation Yrotation Xrotation
						End Site
						{
							OFFSET 0.000000 0.000000 0.000000
						}
					}
				}
			}
		}
	}
	JOINT RHipJoint
	{
		OFFSET 0.000000 0.000000 0.000000
		CHANNELS 3 Zrotation Yrotation Xrotation
		JOINT RightUpLeg
		{
			OFFSET -1.305520 -1.794630 0.839290
			CHANNELS 3 Zrotation Yrotation Xrotation
			JOINT RightLeg
			{
				OFFSET -2.542530 -6.985550 0.000000
				CHANNELS 3 Zrotation Yrotation Xrotation
				JOINT RightFoot
				{
					OFFSET -2.568260 -7.056230 0.000000
					CHANNELS 3 Zrotation Yrotation Xrotation
					JOINT RightToeBase
					{
						OFFSET -0.164730 -0.452590 2.363150
						CHANNELS 3 Zrotation Yrotation Xrotation
						End Site
						{
							OFFSET 0.000000 0.000000 0.000000
						}
					}
				}
			}
		}
	}
	JOINT LowerBack
	{
		OFFSET 0.000000 0.000000 0.000000
		CHANNELS 3 Zrotation Yrotation Xrotation
		JOINT Spine
		{
			OFFSET 0.028270 2.035590 -0.193380
			CHANNELS 3 Zrotation Yrotation Xrotation
			JOINT Spine1
			{
				OFFSET 0.056720 2.048850 -0.042750
				CHANNELS 3 Zrotation Yrotation Xrotation
				JOINT Neck
				{
					OFFSET 0.000000 0.000000 0.000000
					CHANNELS 3 Zrotation Yrotation Xrotation
					JOINT Neck1
					{
						OFFSET -0.054170 1.746240 0.172020
						CHANNELS 3 Zrotation Yrotation Xrotation
						JOINT Head
						{
							OFFSET 0.104070 1.761360 -0.123970
							CHANNELS 3 Zrotation Yrotation Xrotation
							End Site
							{
								OFFSET 0.000000 0.000000 0.000000
							}
						}
					}
				}
				JOINT LeftShoulder
				{
					OFFSET 0.000000 0.000000 0.000000
					CHANNELS 3 Zrotation Yrotation Xrotation
					JOINT LeftArm
					{
						OFFSET 3.362410 1.200890 -0.311210
						CHANNELS 3 Zrotation Yrotation Xrotation
						JOINT LeftForeArm
						{
							OFFSET 4.983000 -0.000000 -0.000000
							CHANNELS 3 Zrotation Yrotation Xrotation
							JOINT LeftHand
							{
								OFFSET 3.483560 -0.000000 -0.000000
								CHANNELS 3 Zrotation Yrotation Xrotation
								JOINT LeftFingerBase
								{
									OFFSET 0.000000 0.000000 0.000000
									CHANNELS 3 Zrotation Yrotation Xrotation
									JOINT LeftHandIndex1
									{
										OFFSET 0.715260 -0.000000 -0.000000
										CHANNELS 3 Zrotation Yrotation Xrotation
										End Site
										{
											OFFSET 0.000000 0.000000 0.000000
										}
									}
								}
								JOINT LThumb
								{
									OFFSET 0.000000 0.000000 0.000000
									CHANNELS 3 Zrotation Yrotation Xrotation
									End Site
									{
										OFFSET 0.000000 0.000000 0.000000
									}
								}
							}
						}
					}
				}
				JOINT RightShoulder
				{
					OFFSET 0.000000 0.000000 0.000000
					CHANNELS 3 Zrotation Yrotation Xrotation
					JOINT RightArm
					{
						OFFSET -3.136600 1.374050 -0.404650
						CHANNELS 3 Zrotation Yrotation Xrotation
						JOINT RightForeArm
						{
							OFFSET -5.241900 -0.000000 -0.000000
							CHANNELS 3 Zrotation Yrotation Xrotation
							JOINT RightHand
							{
								OFFSET -3.444170 -0.000000 -0.000000
								CHANNELS 3 Zrotation Yrotation Xrotation
								JOINT RightFingerBase
								{
									OFFSET 0.000000 0.000000 0.000000
									CHANNELS 3 Zrotation Yrotation Xrotation
									JOINT RightHandIndex1
									{
										OFFSET -0.622530 -0.000000 -0.000000
										CHANNELS 3 Zrotation Yrotation Xrotation
										End Site
										{
											OFFSET 0.000000 0.000000 0.000000
										}
									}
								}
								JOINT RThumb
								{
									OFFSET 0.000000 0.000000 0.000000
									CHANNELS 3 Zrotation Yrotation Xrotation
									End Site
									{
										OFFSET 0.000000 0.000000 0.000000
									}
								}
							}
						}
					}
				}
			}
		}
	}
}
MOTION
Frames: 11
Frame Time: 0.008333
2.655834 16.275491 -2.222772 -172.159052 67.907072 -155.596352 -10.438611 1.422648 1.118629 -19.015563 -3.597688 -22.949125 -2.230665 0.988010 37.195182 3.626030 11.914536 -31.806795 -5.803800 -0.000000 -4.502000 10.045082 -0.331903 -0.118416 2.426610 0.727582 -36.174208 -1.230164 -4.104211 68.751612 -2.510358 -12.570782 -10.900742 0.412700 0.000000 -39.157100 -0.133191 -2.482782 -0.356179 -0.541164 -2.482928 -3.158328 -6.853797 -2.356799 -1.455411 9.931934 -13.975422 -8.872196 -3.024662 -0.213161 -0.368007 0.000000 0.000000 0.000000 3.301511 8.006936 -0.301706 -73.856399 -0.623240 35.058392 -179.527388 -73.945241 179.913230 11.148933 -7.716709 -0.846136 -0.330154 0.753004 0.000000 0.000000 0.000000 0.000000 0.000000 0.000000 0.000000 8.870061 -8.498194 -0.584568 74.867686 -6.767443 29.057234 179.820214 79.783128 179.973314 -3.224997 10.161743 -0.302362 0.008651 -0.585816 -0.000000 0.000000 0.000000 0.000000 0.000000 0.000000 0.000000 
2.865836 16.335374 -2.316192 -171.861301 67.316366 -155.191874 -10.542686 1.455259 1.136449 -18.429538 -3.561097 -21.347345 -2.217384 0.858467 35.554492 3.440874 11.425337 -30.681609 -5.355300 0.000000 -6.134300 9.870202 -0.219299 0.041240 2.616675 1.305142 -37.078731 -1.076239 -4.015821 67.208207 -2.501744 -12.287097 -11.180934 0.446400 0.000000 -39.148100 0.235929 -2.609742 -0.482638 -0.419423 -2.635511 -3.171918 -6.684196 -2.511755 -1.435776 9.764820 -14.377338 -8.957563 -2.984619 -0.209670 -0.385730 0.000000 0.000000 0.000000 3.921666 7.620738 -0.362603 -74.890649 -1.142997 35.064589 -179.498498 -73.106308 179.913755 10.700224 -7.904104 -0.832745 -0.320442 0.781291 0.000000 0.000000 0.000000 0.000000 0.000000 0.000000 0.000000 8.395918 -8.963625 -0.574994 74.211571 -7.785482 29.046402 179.810215 78.700411 179.972986 -3.118110 10.364042 -0.297472 0.002367 -0.591383 -0.000000 0.000000 0.000000 0.000000 0.000000 0.000000 0.000000 
3.079781 16.405895 -2.411130 -171.626678 66.798979 -154.872528 -10.639710 1.503690 1.143519 -17.876649 -3.449317 -19.673953 -2.189310 0.729129 33.758234 3.237332 10.959852 -29.226148 -4.852900 0.000000 -8.183801 9.693737 -0.122270 0.215347 2.765330 1.891079 -37.839178 -0.903330 -3.910591 65.321881 -2.489862 -11.975386 -11.342520 0.450000 -0.000000 -39.316500 0.547297 -2.738756 -0.607445 -0.308297 -2.786203 -3.187137 -6.510450 -2.665699 -1.420209 9.624680 -14.770856 -9.048187 -2.949109 -0.206533 -0.404656 0.000000 0.000000 0.000000 4.607409 7.268288 -0.435757 -75.920302 -1.462032 35.028724 -179.480288 -72.183192 179.914302 10.273394 -8.086907 -0.818764 -0.309259 0.808451 -0.000000 0.000000 0.000000 0.000000 0.000000 0.000000 0.000000 7.972426 -9.409058 -0.571267 73.520830 -8.743151 29.101373 179.797837 77.578516 179.973080 -2.935118 10.584730 -0.284988 -0.005275 -0.598356 -0.000000 0.000000 0.000000 0.000000 0.000000 0.000000 0.000000 
3.297310 16.484696 -2.510162 -171.289242 66.294776 -154.408920 -10.757574 1.566740 1.169494 -17.250687 -3.274407 -18.138548 -2.141189 0.612763 31.972832 3.008573 10.469622 -27.467709 -4.291400 0.000001 -10.771800 9.495051 -0.048261 0.424501 2.983452 2.493087 -38.551360 -0.712691 -3.778371 63.083866 -2.480017 -11.664243 -11.342370 0.414700 0.000000 -39.678200 0.904121 -2.869130 -0.802239 -0.186212 -2.943217 -3.217065 -6.325155 -2.828460 -1.400546 9.481992 -15.145643 -9.145073 -2.912682 -0.203429 -0.423836 0.000000 0.000000 0.000000 5.290942 6.967712 -0.513617 -76.931243 -1.605922 34.978641 -179.475846 -71.218529 179.914623 9.898216 -8.251886 -0.805473 -0.298026 0.834042 -0.000000 0.000000 0.000000 0.000000 0.000000 0.000000 0.000000 7.546790 -9.827995 -0.578823 72.807505 -9.639049 29.202755 179.783164 76.471754 179.973552 -2.694745 10.800404 -0.265913 -0.013897 -0.605342 -0.000000 0.000000 0.000000 0.000000 0.000000 0.000000 0.000000 
3.516653 16.572499 -2.611828 -170.852160 65.836642 -153.898906 -10.900346 1.643990 1.162707 -16.556827 -2.924352 -16.605346 -2.076864 0.516180 30.155409 2.749016 9.936087 -25.357104 -3.666600 -0.000000 -14.066100 9.275868 -0.004140 0.637919 3.263734 3.122358 -39.049622 -0.503072 -3.620376 60.441060 -2.467477 -11.349184 -11.154477 0.337399 0.000000 -40.210500 1.289169 -2.993213 -0.966542 -0.060608 -3.095384 -3.244128 -6.142934 -2.986683 -1.383407 9.349838 -15.486872 -9.238534 -2.881846 -0.200772 -0.442469 0.000000 0.000000 0.000000 5.925062 6.721276 -0.586383 -77.857771 -1.635454 34.924792 -179.482062 -70.252265 179.914572 9.597844 -8.382426 -0.793980 -0.288183 0.857007 -0.000000 0.000000 0.000000 0.000000 0.000000 0.000000 0.000000 7.167767 -10.207523 -0.592970 72.088714 -10.444893 29.312917 179.766799 75.444759 179.974316 -2.419844 10.986369 -0.241649 -0.022954 -0.611443 -0.000000 0.000000 0.000000 0.000000 0.000000 0.000000 0.000000 
3.739742 16.666756 -2.714333 -170.521142 65.417454 -153.478800 -11.036955 1.746111 1.154840 -15.904730 -2.503108 -15.143013 -1.997388 0.438776 28.334613 2.476537 9.411861 -22.883952 -3.006800 -0.000000 -18.047200 9.062047 0.019621 0.873108 3.501235 3.719485 -39.434031 -0.280292 -3.441296 57.434274 -2.442609 -10.984728 -10.771396 0.216900 -0.000000 -40.924000 1.620966 -3.122431 -1.155938 0.054771 -3.249680 -3.276787 -5.962803 -3.148438 -1.363097 9.227760 -15.796937 -9.327973 -2.852478 -0.198331 -0.459517 0.000000 0.000000 0.000000 6.527273 6.518334 -0.657202 -78.684610 -1.544742 34.885051 -179.501968 -69.305263 179.914140 9.372049 -8.482968 -0.785083 -0.279657 0.876904 -0.000000 0.000000 0.000000 0.000000 0.000000 0.000000 0.000000 6.826169 -10.554726 -0.617450 71.410808 -11.189698 29.415913 179.750282 74.532126 179.975333 -2.124447 11.123832 -0.213398 -0.032177 -0.615757 -0.000000 0.000000 0.000000 0.000000 0.000000 0.000000 0.000000 
3.964684 16.766953 -2.818158 -170.194656 65.033258 -153.103259 -11.185443 1.868284 1.119058 -15.235208 -1.941518 -13.708000 -1.904037 0.388665 26.520743 2.187082 8.857844 -20.029484 -2.313400 -0.000000 -22.856700 8.842992 0.014435 1.109946 3.757823 4.296128 -39.606734 -0.041528 -3.236566 54.029520 -2.402882 -10.582242 -10.169575 0.052801 -0.000000 -41.782500 1.945101 -3.247440 -1.317876 0.166325 -3.398676 -3.305927 -5.791131 -3.304928 -1.341698 9.107607 -16.068355 -9.407214 -2.825967 -0.196177 -0.474221 0.000000 0.000000 0.000000 7.048142 6.366053 -0.718208 -79.386927 -1.394856 34.876248 -179.529638 -68.410462 179.913415 9.214434 -8.544854 -0.778088 -0.273155 0.893495 -0.000000 0.000000 0.000000 0.000000 0.000000 0.000000 0.000000 6.518633 -10.862619 -0.649275 70.790206 -11.865844 29.481669 179.734433 73.764632 179.976515 -1.824832 11.197254 -0.182858 -0.041249 -0.617520 -0.000000 0.000000 0.000000 0.000000 0.000000 0.000000 0.000000 
4.190942 16.871510 -2.923046 -169.874627 64.677315 -152.782735 -11.346816 2.008981 1.052427 -14.542373 -1.245694 -12.297485 -1.798220 0.369353 24.730342 1.889157 8.268323 -16.800473 -1.609100 0.000000 -28.464900 8.620198 -0.020986 1.342334 4.043471 4.840380 -39.547323 0.214252 -3.003912 50.229653 -2.342417 -10.134012 -9.336702 -0.152100 -0.000000 -42.767300 2.267297 -3.365022 -1.442535 0.274511 -3.539271 -3.329555 -5.629999 -3.452644 -1.319025 8.982418 -16.300963 -9.473042 -2.800812 -0.194203 -0.485920 0.000000 0.000000 0.000000 7.473656 6.262440 -0.767364 -79.960338 -1.219577 34.911715 -179.560405 -67.590811 179.912619 9.103078 -8.570015 -0.771501 -0.268418 0.906840 -0.000000 0.000000 0.000000 0.000000 0.000000 0.000000 0.000000 6.230430 -11.131524 -0.687114 70.251116 -12.487599 29.489632 179.720653 73.149574 179.977788 -1.530886 11.199806 -0.151631 -0.050069 -0.616366 -0.000000 0.000000 0.000000 0.000000 0.000000 0.000000 0.000000 
4.418060 16.978527 -3.028948 -169.561831 64.339857 -152.519195 -11.520161 2.164452 0.957045 -13.824779 -0.441998 -10.916720 -1.682561 0.381682 22.991055 1.596553 7.640558 -13.255556 -0.930100 -0.000000 -34.500100 8.395797 -0.086128 1.566938 4.364834 5.338926 -39.251381 0.488830 -2.740403 46.050180 -2.254702 -9.632427 -8.263386 -0.392300 -0.000000 -43.870600 2.591442 -3.472063 -1.528600 0.379776 -3.668533 -3.347245 -5.479843 -3.588440 -1.295007 8.845411 -16.497189 -9.523779 -2.775108 -0.192269 -0.494237 0.000000 0.000000 0.000000 7.802089 6.202888 -0.804459 -80.413461 -1.044932 34.999100 -179.589436 -66.858845 179.912049 9.006018 -8.565157 -0.763531 -0.264628 0.917310 -0.000000 0.000000 0.000000 0.000000 0.000000 0.000000 0.000000 5.943465 -11.363252 -0.729413 69.812568 -13.074385 29.424845 179.710319 72.680490 179.979087 -1.247544 11.132997 -0.120714 -0.058680 -0.612283 -0.000000 0.000000 0.000000 0.000000 0.000000 0.000000 0.000000 
4.645794 17.085902 -3.135602 -169.266633 64.012690 -152.318355 -11.702661 2.330032 0.837101 -13.085248 0.436154 -9.576006 -1.560143 0.424228 21.337269 1.324083 6.972712 -9.473514 -0.315100 -0.000001 -40.559700 8.173538 -0.178004 1.782736 4.723808 5.779407 -38.728044 0.783939 -2.442743 41.521907 -2.133237 -9.071590 -6.943398 -0.659000 0.000000 -45.088500 2.917876 -3.566037 -1.579687 0.482215 -3.783975 -3.359252 -5.339725 -3.709727 -1.268696 8.692252 -16.662888 -9.560266 -2.746711 -0.190191 -0.499421 0.000000 0.000000 0.000000 8.040780 6.184294 -0.830517 -80.761855 -0.893420 35.143394 -179.612057 -66.220775 179.912011 8.890364 -8.533257 -0.751590 -0.260799 0.925203 -0.000000 0.000000 0.000000 0.000000 0.000000 0.000000 0.000000 5.641341 -11.562729 -0.774773 69.485207 -13.645598 29.279993 179.704479 72.339480 179.980345 -0.978255 11.005213 -0.091108 -0.067141 -0.605582 -0.000000 0.000000 0.000000 0.000000 0.000000 0.000000 0.000000 
4.874035 17.191412 -3.242788 -169.003187 63.685979 -152.183110 -11.888979 2.499880 0.700294 -12.336061 1.344210 -8.295227 -1.434515 0.492750 19.816396 1.086521 6.267798 -5.567321 0.197200 -0.000000 -46.116400 7.959461 -0.290387 1.991025 5.112402 6.147360 -38.005583 1.100078 -2.108269 36.697786 -1.972240 -8.447208 -5.373415 -0.939900 -0.000000 -46.421700 3.240902 -3.645775 -1.605910 0.580961 -3.884224 -3.367063 -5.208366 -3.815196 -1.239549 8.521889 -16.804742 -9.584644 -2.713865 -0.187818 -0.501958 0.000000 0.000000 0.000000 8.207337 6.200429 -0.847602 -81.027295 -0.777349 35.343960 -179.625134 -65.674647 179.912773 8.724799 -8.481421 -0.733684 -0.255763 0.930989 -0.000000 0.000000 0.000000 0.000000 0.000000 0.000000 0.000000 5.312011 -11.735100 -0.822002 69.272796 -14.220239 29.053542 179.703726 72.098476 179.981502 -0.724410 10.831620 -0.063508 -0.075555 -0.596898 -0.000000 0.000000 0.000000 0.000000 0.000000 0.000000 0.000000 
